<svg fill="white" height="65px" id="Layer_1" enable-background="new 0 0 512 512" viewBox="0 0 512 512"  xmlns="http://www.w3.org/2000/svg"><g><path d="m512 256c0-25.682-14.761-47.982-36.242-58.861 3.792-5.797 6.676-12.226 8.521-19.113 4.56-17.017 2.224-34.783-6.577-50.026-12.848-22.251-36.798-34.18-60.853-32.852 1.333-24.054-10.599-48.002-32.851-60.853-22.251-12.844-48.957-11.2-69.123 1.981-10.872-21.5-33.181-36.276-58.875-36.276s-48.002 14.775-58.875 36.276c-20.167-13.182-46.873-14.823-69.126-1.979-22.25 12.85-34.182 36.798-32.849 60.852-24.046-1.337-48.006 10.601-60.853 32.851-8.801 15.243-11.136 33.009-6.577 50.026 1.845 6.888 4.73 13.316 8.521 19.113-21.48 10.879-36.241 33.179-36.241 58.861s14.761 47.982 36.242 58.861c-3.792 5.797-6.676 12.226-8.521 19.113-4.56 17.017-2.224 34.783 6.577 50.026 12.848 22.251 36.801 34.187 60.853 32.852-1.333 24.054 10.599 48.002 32.851 60.853 22.252 12.844 48.958 11.2 69.123-1.981 10.872 21.5 33.181 36.276 58.875 36.276s48.002-14.775 58.875-36.276c20.167 13.183 46.874 14.824 69.126 1.979 22.25-12.85 34.182-36.798 32.849-60.852 1.215.067 2.427.101 3.64.101 22.804-.001 45.015-11.827 57.212-32.952 8.801-15.243 11.136-33.009 6.577-50.026-1.845-6.888-4.73-13.316-8.521-19.113 21.481-10.879 36.242-33.179 36.242-58.861zm-65.929 35.931c-6.79 0-12.732 4.561-14.489 11.119s1.11 13.479 6.991 16.873c8.302 4.792 14.243 12.54 16.729 21.816 2.485 9.277 1.214 18.958-3.58 27.261-9.906 17.157-31.926 23.058-49.083 13.155-5.881-3.394-13.307-2.416-18.106 2.386-4.8 4.801-5.777 12.227-2.383 18.106 9.905 17.154 4.004 39.17-13.149 49.077-17.158 9.903-39.176 4.002-49.083-13.154-3.395-5.879-10.314-8.748-16.873-6.988-6.558 1.757-11.117 7.7-11.117 14.489.001 19.81-16.117 35.929-35.928 35.929s-35.929-16.119-35.929-35.931c0-6.789-4.56-12.731-11.117-14.489-9.587-2.567-15.389 4.419-16.873 6.988-9.907 17.157-31.924 23.057-49.08 13.156-17.157-9.909-23.057-31.925-13.152-49.079 3.395-5.879 2.417-13.305-2.383-18.106-4.8-4.8-12.225-5.778-18.106-2.386-17.157 9.903-39.176 4.002-49.083-13.155-4.794-8.303-6.065-17.984-3.58-27.261 2.486-9.276 8.427-17.024 16.729-21.816 5.88-3.394 8.748-10.314 6.991-16.873s-7.7-11.119-14.489-11.119c-19.81.002-35.928-16.117-35.928-35.929s16.118-35.931 35.929-35.931c6.79 0 12.732-4.561 14.489-11.119s-1.11-13.479-6.991-16.873c-8.302-4.792-14.243-12.54-16.729-21.816-2.485-9.277-1.214-18.958 3.58-27.261 9.905-17.157 31.923-23.059 49.083-13.155 5.881 3.395 13.307 2.416 18.106-2.386 4.8-4.801 5.777-12.227 2.383-18.106-9.905-17.154-4.004-39.17 13.149-49.077 17.157-9.903 39.176-4.002 49.083 13.154 3.395 5.879 10.312 8.746 16.873 6.988 6.558-1.757 11.117-7.7 11.117-14.489-.001-19.81 16.117-35.929 35.928-35.929s35.929 16.119 35.929 35.931c0 6.789 4.56 12.731 11.117 14.489 6.561 1.756 13.478-1.109 16.873-6.988 9.908-17.157 31.925-23.057 49.08-13.156 17.157 9.909 23.057 31.925 13.152 49.079-3.395 5.879-2.417 13.305 2.383 18.106s12.226 5.78 18.106 2.386c17.158-9.903 39.176-4.002 49.083 13.155 4.794 8.303 6.065 17.984 3.58 27.261-2.486 9.276-8.427 17.024-16.729 21.816-5.88 3.394-8.748 10.314-6.991 16.873s7.7 11.119 14.489 11.119c19.81-.002 35.928 16.117 35.928 35.929s-16.118 35.931-35.929 35.931z"/><path d="m320.267 273.133c-25.989 0-47.133 21.144-47.133 47.133s21.144 47.133 47.133 47.133 47.133-21.144 47.133-47.133-21.144-47.133-47.133-47.133zm0 64.267c-9.447 0-17.133-7.686-17.133-17.133s7.686-17.133 17.133-17.133 17.133 7.686 17.133 17.133-7.686 17.133-17.133 17.133z"/><path d="m238.867 191.733c0-25.989-21.144-47.133-47.133-47.133s-47.134 21.144-47.134 47.133 21.144 47.133 47.133 47.133 47.134-21.143 47.134-47.133zm-64.267 0c0-9.447 7.686-17.133 17.133-17.133s17.133 7.686 17.133 17.133-7.686 17.133-17.133 17.133-17.133-7.685-17.133-17.133z"/><path d="m329.637 163.954c-6.47-5.176-15.909-4.126-21.083 2.342l-128.533 160.667c-5.175 6.469-4.126 15.909 2.342 21.083 6.776 5.42 16.165 3.806 21.083-2.342l128.533-160.667c5.176-6.469 4.127-15.909-2.342-21.083z"/></g></svg>
